<svg version="1.1" xmlns="http://www.w3.org/2000/svg" xmlns:xlink="http://www.w3.org/1999/xlink" x="0px" y="0px" viewBox="0.58 4.88 153.72 40.02" style="enable-background:new 0 0 160 50;" xml:space="preserve" height="50">
<g id="wordmark">
<path d="M52.3,14.1v7.8c0.8-1.5,3.1-2.3,4.6-2.3c4.1,0,7.2,2.5,7.2,7.4c0,4.6-3.1,7.4-7.3,7.4c-1.7,0-3.5-0.6-4.6-2.2l-0.2,2h-3.3 v-20H52.3z M52.4,27.1c0,2.5,1.9,4.2,4.1,4.2c2.2,0,4-1.7,4-4.2c0-2.5-1.8-4.1-4-4.1C54.3,22.9,52.4,24.6,52.4,27.1z" shape-rendering="geometricPrecision"></path>
<path d="M69.6,28.4c0.2,1.7,1.7,3,4.2,3c1.3,0,3-0.5,3.8-1.3l2.2,2.2c-1.5,1.5-3.9,2.3-6.1,2.3c-4.9,0-7.8-3-7.8-7.5 c0-4.3,2.9-7.4,7.5-7.4c4.7,0,7.7,3,7.1,8.8L69.6,28.4L69.6,28.4z M77.3,25.4c-0.2-1.7-1.7-2.7-3.7-2.7c-1.9,0-3.4,1-4,2.7H77.3z" shape-rendering="geometricPrecision"></path>
<path d="M94.5,20.1h3.3v14.1h-3.3l-0.2-2.1c-0.8,1.7-3,2.5-4.6,2.5c-4.2,0-7.3-2.6-7.3-7.5c0-4.9,3.2-7.4,7.4-7.4 c1.9,0,3.7,0.9,4.5,2.3L94.5,20.1z M86,27.1c0,2.7,1.8,4.3,4.2,4.3c5.5,0,5.5-8.6,0-8.6C87.8,22.8,86,24.4,86,27.1z" shape-rendering="geometricPrecision"></path>
<path d="M110.2,34.2v-7.6c0-1.9-1-3.5-2.9-3.5c-1.9,0-3,1.7-3,3.5v7.6h-3.4V19.9h3.2l0.3,1.8c0.7-1.4,2.4-1.9,3.7-1.9 c1.7,0,3.4,0.7,4.2,2.6c1.3-2,2.9-2.6,4.7-2.6c4,0,6,2.5,6,6.7v7.6h-3.4v-7.6c0-1.9-0.8-3.4-2.7-3.4c-1.9,0-3.1,1.6-3.1,3.5v7.6 H110.2z" shape-rendering="geometricPrecision"></path>
<path d="M129.4,28.4c0.2,1.7,1.7,3,4.2,3c1.3,0,3-0.5,3.8-1.3l2.2,2.2c-1.5,1.5-3.9,2.3-6.1,2.3c-4.9,0-7.8-3-7.8-7.5 c0-4.3,2.9-7.4,7.5-7.4c4.7,0,7.7,3,7.1,8.8L129.4,28.4L129.4,28.4z M137.1,25.4c-0.2-1.7-1.7-2.7-3.7-2.7c-1.9,0-3.4,1-4,2.7 H137.1z" shape-rendering="geometricPrecision"></path>
<path d="M146.4,20.1l0.3,1.6c1.1-1.7,2.5-2,4-2c1.5,0,2.9,0.6,3.6,1.3l-1.6,3c-0.7-0.6-1.3-0.9-2.5-0.9c-1.8,0-3.5,1-3.5,3.6v7.5 h-3.6V20.1H146.4z"></path>
</g>
<g id="isotype">
<path d="M3.3,39.3c-1.1,0-2.1-0.6-2.5-1.7c-0.6-1.4,0.1-3,1.5-3.5l32-13.1c1.4-0.6,3,0.1,3.6,1.5c0.6,1.4-0.1,3-1.5,3.5l-32,13.1 C4,39.2,3.7,39.3,3.3,39.3z" shape-rendering="geometricPrecision"></path>
<path d="M3.3,28.9c-1.1,0-2.1-0.6-2.5-1.7c-0.6-1.4,0.1-3,1.5-3.5l32-13.1c1.4-0.6,3,0.1,3.6,1.5c0.6,1.4-0.1,3-1.5,3.5l-32,13.1 C4,28.9,3.7,28.9,3.3,28.9z" shape-rendering="geometricPrecision"></path>
<path d="M3.3,18.2c-1.1,0-2.1-0.6-2.5-1.7c-0.6-1.4,0.1-3,1.5-3.5l19.6-7.9c1.4-0.6,3,0.1,3.6,1.5c0.6,1.4-0.1,3-1.5,3.5L4.4,18 C4,18.2,3.7,18.2,3.3,18.2z" shape-rendering="geometricPrecision"></path>
<path d="M15.6,44.9c-1.1,0-2.1-0.6-2.5-1.7c-0.6-1.4,0.1-3,1.5-3.5l19.6-7.9c1.4-0.6,3,0.1,3.6,1.5c0.6,1.4-0.1,3-1.5,3.5 l-19.6,7.9C16.3,44.8,16,44.9,15.6,44.9z" shape-rendering="geometricPrecision"></path>
</g>
</svg>