<svg version="1.1" id="Layer_1" xmlns="http://www.w3.org/2000/svg" xmlns:xlink="http://www.w3.org/1999/xlink" x="0px" y="0px" viewBox="33.6 3.9 126.31 32.3" style="enable-background:new 0 0 160 40;" xml:space="preserve" height="25" fill="#1a57e6">
<g id="byline">
<path d="M109.3,4.1l-0.8,4.4h-0.8c-1.9,0-2.2,0.3-2.7,3v0.3h3.3l-0.8,4.1h-3.3c-0.8,5.2-2.2,12.9-2.2,12.9 c-1.1,5.8-1.9,7.4-6.9,7.4h-2.2l0.8-4.4h1.1c1.9,0,2.2-0.3,2.7-3l3-17.5c1.1-6.3,2.5-7.4,7.7-7.4h1.1V4.1z M37,11.8 c2.7,0,3.8,1.4,3,5.2l-0.8,4.7c-0.5,2.2,0.3,3.6,2.2,3.6c1.6,0,3-1.6,3.3-4.1l1.6-9H51l-2.2,11.2c-0.3,1.1,0,1.6,1.1,1.6h0.5 L49.9,29h-2.2c-1.6,0-2.7-0.5-3.3-1.6c-1.1,1.1-2.5,1.9-4.7,1.9c-4.1,0-6.6-2.5-5.8-7.7l0.8-4.1c0.3-1.4,0-1.6-0.8-1.6h-0.3 l0.8-4.1L37,11.8L37,11.8z M58.6,29.3c4.1,0,6.9-2.2,7.4-5.2c0.5-3.8-2.5-4.9-4.9-5.8c-1.9-0.5-3.3-0.8-3.3-1.6 c0-0.8,0.8-1.4,2.2-1.4c1.6,0,2.7,0.8,3.6,1.9l3.8-2.5c-1.4-1.9-3.8-3.3-7.1-3.3c-3.6,0-6.6,1.9-6.9,4.7c-0.5,3.8,2.5,4.9,4.9,5.8 c1.9,0.5,3.3,0.8,3.3,1.9c-0.3,1.1-1.1,1.6-2.2,1.6c-1.6,0-3-0.8-3.8-2.5l-4.1,2.7C52.3,27.7,54.8,29.3,58.6,29.3L58.6,29.3 L58.6,29.3z M136.2,11.8c2.7,0,3.8,1.4,3,5.2l-0.8,4.7c-0.5,2.2,0,3.6,1.9,3.6c1.6,0,3-1.9,3.6-4.4l1.6-9h4.7l-1.9,10.4 c-0.3,1.9,0.3,2.7,1.6,2.7c2.7,0,4.4-3,4.9-6.6c0.5-3,0.3-4.9-0.3-6.6h4.9c0.3,1.6,0.8,4.1,0.3,7.4c-0.8,5.2-3.8,10.1-9.6,10.1 c-2.7,0-4.1-0.8-4.9-2.5c-1.6,1.6-3.6,2.5-5.8,2.5c-4.1,0-6.6-2.7-5.5-7.7l0.8-4.1c0.3-1.4,0-1.6-0.8-1.6h-0.5l0.8-4.1 C134.3,11.8,136.2,11.8,136.2,11.8z M122.8,29.3c5.2,0,8.5-3.6,9.3-7.7c0.8-5.2-2.2-9.9-7.9-9.9c-4.9,0-8.5,3.6-9.3,7.7 C113.7,24.4,116.7,29.3,122.8,29.3z M71.3,22.2L71.3,22.2L71.3,22.2c0.5,1.9,1.9,3,4.4,3c1.6,0,3-0.8,4.1-2.2l3.6,2.5 c-1.6,2.2-4.1,3.8-7.9,3.8c-6.3,0-9-4.9-8.2-9.9c0.8-4.4,4.7-7.4,8.5-7.7c0.3,0,0.8,0,1.1,0l0,0l0,0c5.2,0,8.2,3.8,7.7,8.8 l-0.3,1.6L71.3,22.2L71.3,22.2z M115.6,4.1l-3.6,19.5c-0.3,0.8,0,1.1,1.1,1.1h0.5l-0.8,4.4h-2.2c-3.8,0-3.8-2.5-3.3-5.5l3.3-19.5 H115.6L115.6,4.1z M88,11.8c2.2,0,3,1.1,3.3,2.7c1.1-1.9,3-2.7,5.2-2.7h2.2l-0.8,4.7h-1.9c-2.5,0-4.1,1.1-4.7,4.1l-1.6,8.2H85 l2.2-11.2c0.3-1.1,0-1.6-1.1-1.6h-0.5l0.8-4.1L88,11.8L88,11.8z M123,24.9c-2.7,0-4.4-2.5-3.8-4.9c0.3-2.5,2.5-4.1,4.7-4.1 c2.7,0,4.4,2.5,3.8,5.2C127.2,23.3,125.2,24.9,123,24.9z M80,18.4c-0.5-1.6-1.6-2.7-3.8-2.7s-3.6,1.1-4.4,2.7H80z"></path>
</g>
</svg>